# xmcd
#
# Track frame offsets: 
#        150
#        26833
#        47078
#        77873
#        91620
#        115058
#        135900
#        153135
#        173130
#        196675
#
# Disc length: 2913 seconds
#
# Revision: 0
# Processed by: cddbd v1.5.2PL0 Copyright (c) Steve Scherf et al.
# Submitted via: ExactAudioCopy v1.0b3
#
DISCID=6b0b5f0a
DTITLE=Ngoc Son - Thanh Pho Mua Bay
DYEAR=1992
DGENRE=
TTITLE0=Hai vi sao lac
TTITLE1=Nhat ky doi toi
TTITLE2=Ao em chua mac mot lan
TTITLE3=Thanh pho mua bay
TTITLE4=Trom nhin nhau
TTITLE5=Doi toi chi yeu mot nguoi
TTITLE6=Duoc tin em lay chong
TTITLE7=Thuo ay co em
TTITLE8=Dem buon tinh le
TTITLE9=Con duong xua em di
EXTD=
EXTT0=
EXTT1=
EXTT2=
EXTT3=
EXTT4=
EXTT5=
EXTT6=
EXTT7=
EXTT8=
EXTT9=
PLAYORDER=
